<svg width="13" height="14" viewBox="0 0 13 14" fill="none" xmlns="http://www.w3.org/2000/svg"><path fill-rule="evenodd" clip-rule="evenodd" d="M7.79292 8.26389C6.361 9.69581 4.03939 9.69581 2.60747 8.26389 1.17555 6.83197 1.17555 4.51036 2.60747 3.07844 4.03939 1.64652 6.361 1.64652 7.79292 3.07844 9.22484 4.51036 9.22484 6.83197 7.79292 8.26389zM8.2333 9.64685C6.27308 11.1462 3.45749 10.9995 1.66466 9.2067-.28796 7.25408-.28796 4.08825 1.66466 2.13563 3.61728.18301 6.78311.18301 8.73573 2.13563 10.5285 3.92838 10.6753 6.7438 9.17608 8.70401L12.7428 12.2707 11.8 13.2135 8.2333 9.64685z" fill="#a0a0a0"/></svg>